<svg width="142" height="263" viewBox="0 0 142 263" fill="none" xmlns="http://www.w3.org/2000/svg">
<path d="M130.271 10.018C130.271 17.278 130.271 24.538 130.271 32.018C126.831 33.1647 123.695 33.4114 120.083 33.768C95.2945 36.6495 71.8829 49.1376 56.033 68.5326C39.1025 89.9826 32.3678 115.378 34.5482 142.463C37.1421 162.177 44.6806 181.297 58.2708 196.018C59.1538 196.993 60.0368 197.967 60.9466 198.971C77.6724 216.874 99.7951 226.228 123.987 228.373C130.178 228.925 130.178 228.925 131.271 230.018C131.358 231.653 131.378 233.291 131.368 234.928C131.364 236.412 131.364 236.412 131.359 237.926C131.346 239.488 131.346 239.488 131.333 241.08C131.329 242.125 131.324 243.17 131.32 244.246C131.308 246.837 131.291 249.427 131.271 252.018C101.135 253.407 72.9903 242.461 50.5242 222.463C26.4536 200.489 12.014 169.612 10.2708 137.018C10.2051 135.796 10.1393 134.574 10.0716 133.315C8.92389 101.05 21.6414 70.2494 43.3021 46.6742C66.2844 22.4217 96.9694 9.44871 130.271 10.018Z" fill="#111111"/>
<path d="M131.271 60.0181C131.271 67.9381 131.271 75.8581 131.271 84.0181C129.415 84.2037 127.558 84.3893 125.646 84.5806C113.354 86.5087 103.03 92.2798 95.2709 102.018C86.5008 114.111 84.914 126.415 86.2709 141.018C88.4674 152.876 95.418 163.118 105.271 170.018C112.553 174.548 119.235 176.754 127.751 177.694C130.271 178.018 130.271 178.018 131.271 179.018C131.358 180.726 131.378 182.437 131.369 184.147C131.364 185.699 131.364 185.699 131.359 187.282C131.346 188.915 131.346 188.915 131.333 190.581C131.329 191.673 131.324 192.766 131.32 193.891C131.308 196.6 131.291 199.309 131.271 202.018C112.353 201.693 95.5806 195.781 81.6498 182.588C67.1639 166.937 60.1767 147.518 60.9272 126.284C61.9953 109.544 69.0926 94.4236 80.2709 82.0181C80.8239 81.3838 81.3769 80.7496 81.9467 80.0962C94.448 66.6103 113.291 60.0181 131.271 60.0181Z" fill="#111111"/>
<path d="M131.271 111.018C131.271 124.218 131.271 137.418 131.271 151.018C121.81 149.836 121.81 149.836 117.271 146.018C112.154 139.242 111.33 133.355 112.271 125.018C114.658 118.866 118.927 114.649 124.833 111.768C127.271 111.018 127.271 111.018 131.271 111.018Z" fill="#181818"/>
</svg>
